<?xml version="1.0" encoding="UTF-8" standalone="no"?>
<svg
   xmlns:dc="http://purl.org/dc/elements/1.1/"
   xmlns:cc="http://creativecommons.org/ns#"
   xmlns:rdf="http://www.w3.org/1999/02/22-rdf-syntax-ns#"
   xmlns:svg="http://www.w3.org/2000/svg"
   xmlns="http://www.w3.org/2000/svg"
   xmlns:xlink="http://www.w3.org/1999/xlink"
   xmlns:sodipodi="http://sodipodi.sourceforge.net/DTD/sodipodi-0.dtd"
   xmlns:inkscape="http://www.inkscape.org/namespaces/inkscape"
   viewBox="0 0 300 300"
   fill="none"
   version="1.1"
   id="svg85"
   sodipodi:docname="icon.svg"
   inkscape:version="1.0.2 (e86c870879, 2021-01-15)"
   width="300"
   height="300">
  <metadata
     id="metadata89">
    <rdf:RDF>
      <cc:Work
         rdf:about="">
        <dc:format>image/svg+xml</dc:format>
        <dc:type
           rdf:resource="http://purl.org/dc/dcmitype/StillImage" />
        <dc:title></dc:title>
      </cc:Work>
    </rdf:RDF>
  </metadata>
  <sodipodi:namedview
     pagecolor="#ffffff"
     bordercolor="#666666"
     borderopacity="1"
     objecttolerance="10"
     gridtolerance="10"
     guidetolerance="10"
     inkscape:pageopacity="0"
     inkscape:pageshadow="2"
     inkscape:window-width="1920"
     inkscape:window-height="991"
     id="namedview87"
     showgrid="false"
     inkscape:zoom="2.3295454"
     inkscape:cx="125.28238"
     inkscape:cy="85.471337"
     inkscape:window-x="-9"
     inkscape:window-y="-9"
     inkscape:window-maximized="1"
     inkscape:current-layer="svg85"
     inkscape:document-rotation="0" />
  <defs
     id="defs83">
    <filter
       id="filter0_d_258_94"
       x="-5"
       y="0.40000001"
       width="30.4"
       height="22.1"
       filterUnits="userSpaceOnUse"
       color-interpolation-filters="sRGB">
      <feFlood
         flood-opacity="0"
         result="BackgroundImageFix"
         id="feFlood26" />
      <feColorMatrix
         in="SourceAlpha"
         type="matrix"
         values="0 0 0 0 0 0 0 0 0 0 0 0 0 0 0 0 0 0 127 0"
         result="hardAlpha"
         id="feColorMatrix28" />
      <feOffset
         dy="0.8"
         id="feOffset30" />
      <feGaussianBlur
         stdDeviation="0.8"
         id="feGaussianBlur32" />
      <feColorMatrix
         type="matrix"
         values="0 0 0 0 0.758333 0 0 0 0 0.3185 0 0 0 0 0 0 0 0 0.49 0"
         id="feColorMatrix34" />
      <feBlend
         mode="multiply"
         in2="BackgroundImageFix"
         result="effect1_dropShadow_258_94"
         id="feBlend36" />
      <feBlend
         mode="normal"
         in="SourceGraphic"
         in2="effect1_dropShadow_258_94"
         result="shape"
         id="feBlend38" />
    </filter>
    <linearGradient
       id="paint0_linear_258_94"
       x1="8.5"
       y1="6.3000002"
       x2="15.6"
       y2="24"
       gradientUnits="userSpaceOnUse"
       xlink:href="#paint5_linear_258_94">
      <stop
         stop-color="#FFD86A"
         id="stop41" />
      <stop
         offset="1"
         stop-color="#FFB63C"
         id="stop43" />
    </linearGradient>
    <linearGradient
       id="paint1_linear_258_94"
       x1="7.6999998"
       y1="4.5"
       x2="12.7"
       y2="16.700001"
       gradientUnits="userSpaceOnUse">
      <stop
         stop-color="#FFE37C"
         id="stop46" />
      <stop
         offset="1"
         stop-color="#FFA919"
         id="stop48" />
    </linearGradient>
    <linearGradient
       id="paint2_linear_258_94"
       x1="7.6999998"
       y1="4.5"
       x2="12.7"
       y2="16.700001"
       gradientUnits="userSpaceOnUse">
      <stop
         stop-color="#FFE37C"
         id="stop51" />
      <stop
         offset="1"
         stop-color="#FFA919"
         id="stop53" />
    </linearGradient>
    <linearGradient
       id="paint3_linear_258_94"
       x1="7.6999998"
       y1="4.5"
       x2="12.7"
       y2="16.700001"
       gradientUnits="userSpaceOnUse">
      <stop
         stop-color="#FFE688"
         id="stop56" />
      <stop
         offset="1"
         stop-color="#FFBC11"
         id="stop58" />
      <stop
         offset="1"
         stop-color="#FFA919"
         id="stop60" />
    </linearGradient>
    <linearGradient
       id="paint4_linear_258_94"
       x1="7.6999998"
       y1="4.5"
       x2="12.7"
       y2="16.700001"
       gradientUnits="userSpaceOnUse">
      <stop
         stop-color="#FFE688"
         id="stop63" />
      <stop
         offset="1"
         stop-color="#FFBC11"
         id="stop65" />
      <stop
         offset="1"
         stop-color="#FFA919"
         id="stop67" />
    </linearGradient>
    <linearGradient
       id="paint5_linear_258_94"
       x1="8.8000002"
       y1="6.5999999"
       x2="12"
       y2="14.5"
       gradientUnits="userSpaceOnUse">
      <stop
         stop-color="#444444"
         id="stop70" />
      <stop
         offset="1"
         stop-color="#222222"
         id="stop72" />
    </linearGradient>
    <linearGradient
       id="paint6_linear_258_94"
       x1="23.5"
       y1="0"
       x2="27.1"
       y2="8.8999996"
       gradientUnits="userSpaceOnUse">
      <stop
         stop-color="#444444"
         id="stop75" />
      <stop
         offset="1"
         stop-color="#222222"
         id="stop77" />
    </linearGradient>
    <clipPath
       id="clip0_258_94">
      <rect
         width="22"
         height="22"
         fill="#ffffff"
         id="rect80"
         x="0"
         y="0" />
    </clipPath>
    <linearGradient
       inkscape:collect="always"
       xlink:href="#paint6_linear_258_94"
       id="linearGradient987"
       gradientUnits="userSpaceOnUse"
       x1="23.5"
       y1="0"
       x2="27.1"
       y2="8.8999996" />
  </defs>
  <g
     inkscape:groupmode="layer"
     id="layer1"
     inkscape:label="Layer 1"
     style="display:inline" />
  <g
     id="g985"
     transform="matrix(0.60814728,0,0,0.55015117,-4.0770623,-27.677152)">
    <polygon
       fill="#e44d26"
       points="437.367,100.62 404.321,470.819 255.778,512 107.644,470.877 74.633,100.62 "
       id="polygon947" />
    <polygon
       fill="#f16529"
       points="376.03,447.246 404.27,130.894 256,130.894 256,480.523 "
       id="polygon949" />
    <polygon
       fill="#ebebeb"
       points="143.219,188.488 154.38,313.627 256,313.627 256,268.217 195.91,268.217 191.76,221.716 256,221.716 256,176.305 255.843,176.305 142.132,176.305 "
       id="polygon951" />
    <polygon
       fill="#ebebeb"
       points="201.994,336.333 177.419,336.333 156.409,336.333 162.771,407.634 255.791,433.457 256,433.399 256,386.153 255.801,386.206 205.227,372.55 "
       id="polygon953" />
    <path
       d="m 108.382,0 h 23.077 v 22.8 h 21.11 V 0 h 23.078 V 69.044 H 152.57 v -23.12 h -21.11 v 23.12 H 108.383 V 0 Z"
       id="path955" />
    <path
       d="M 205.994,22.896 H 185.678 V 0 h 63.72 V 22.896 H 229.073 V 69.044 H 205.995 V 22.896 Z"
       id="path957" />
    <path
       d="m 259.511,0 h 24.063 L 298.376,24.26 313.163,0 h 24.072 V 69.044 H 314.253 V 34.822 l -15.877,24.549 h -0.397 L 282.091,34.822 v 34.222 h -22.58 z"
       id="path959" />
    <path
       d="m 348.72,0 h 23.084 v 46.222 h 32.453 V 69.044 H 348.72 Z"
       id="path961" />
    <polygon
       fill="#ffffff"
       points="311.761,313.627 306.49,372.521 255.843,386.191 255.843,433.435 348.937,407.634 349.62,399.962 360.291,280.411 361.399,268.217 349.162,268.217 255.843,268.217 255.843,313.627 "
       id="polygon963" />
    <polygon
       fill="#ffffff"
       points="255.843,221.605 255.843,221.716 365.385,221.716 365.531,221.716 366.442,211.509 368.511,188.488 369.597,176.305 255.843,176.305 255.843,204.509 "
       id="polygon965" />
  </g>
  <g
     style="fill:none"
     id="g1030"
     transform="matrix(0.6973194,0,0,0.74291233,9.8194332,212.08689)">
    <path
       d="M 84.9105,25.8999 C 85.0798,18.6894 84.6565,6.12393 80.0847,0.881847 77.58,-1.98966 71.6254,2.815 67.7732,6.52608 61.3881,3.4147 53.5426,1.8837 44.0039,1.8837 34.4651,1.8837 26.6267,3.42175 20.2487,6.52608 16.3824,2.80794 10.4348,-1.99671 7.93015,0.874792 3.36538,6.10982 2.935,18.633 3.10433,25.8505 1.04418,31.4948 0,38.0844 0,45.6124 c 0,15.818 4.5295,27.5298 13.4544,34.8602 6.0112,4.9246 13.8637,7.7609 23.8681,8.6146 -1.1712,0.5855 -2.3847,1.157 -3.6335,1.7991 l -3.6264,1.7779 -2.0601,1.0089 c -1.9967,1.0442 -4.0568,1.9684 -6.2722,3.3301 L 21.18,97.2925 c -0.1552,0.1128 -0.3034,0.3033 -0.3316,0.515 -0.0706,0.4022 0.2046,0.7831 0.6068,0.8396 2.0178,0.3034 4.0144,0.6985 6.0605,0.8748 l 1.5239,0.1694 c 0.5009,0.0564 1.0089,0.0987 1.5239,0.127 l 3.062,0.1693 c 4.0992,0.0704 8.2265,-0.1552 12.3186,-0.7973 4.085,-0.6138 8.0995,-1.7567 11.9587,-3.3442 3.8381,-1.5874 7.5139,-3.6546 10.8369,-6.1734 6.5897,-5.115 11.7683,-12.001 14.8514,-19.6772 1.1289,-2.7798 1.9685,-5.6654 2.5752,-8.5933 1.2206,-4.6988 1.8415,-9.9621 1.8415,-15.7898 0,-7.4998 -1.0442,-14.0753 -3.0903,-19.7125 z"
       fill="#6842ff"
       id="path1007" />
    <path
       d="M 61.5433,87.1399 C 56.4706,88.6215 50.65,89.3553 43.9968,89.3553 h -0.0141 c -0.6279,0 -1.277,-0.0071 -1.9261,-0.0283 -1.3334,-0.0282 -2.6246,-0.0917 -3.8875,-0.1834 -0.2892,-0.0212 -0.5785,-0.0423 -0.8537,-0.0635 -1.1711,0.5785 -2.3846,1.1571 -3.6334,1.7991 l -3.6265,1.7779 c 1.7145,0.1129 3.7394,0.2399 5.5385,0.2399 10.6605,0 19.2045,-1.8979 25.9493,-5.7571 z"
       fill="#492eb3"
       id="path1009" />
    <path
       d="m 43.9967,73.5303 c 16.8621,0 28.0871,-4.7412 28.0871,-27.9179 0,-10.9427 -2.5187,-18.3296 -7.6691,-22.5769 -4.3602,-3.5841 -11.0486,-5.3409 -20.418,-5.3409 -9.3694,0 -16.0579,1.7427 -20.418,5.3409 -5.1645,4.2402 -7.6692,11.6412 -7.6692,22.5769 0,23.1767 11.225,27.9179 28.0872,27.9179 z"
       fill="#ffffff"
       id="path1011" />
    <path
       d="m 35.0367,39.6789 c 0,-2.0813 1.3828,-3.8451 3.2807,-4.4377 -1.0442,-0.9666 -2.4411,-1.5593 -3.9792,-1.5593 -3.2242,0 -5.8629,2.6246 -5.8629,5.8277 V 51.165 c 0,3.2031 2.6387,5.8276 5.8629,5.8276 3.2243,0 5.863,-2.6175 5.863,-5.8276 v -6.8578 c -0.1623,0.0141 -0.3246,0.0282 -0.4868,0.0282 -2.5893,0 -4.6847,-2.0813 -4.6847,-4.6494 z"
       fill="#6842ff"
       id="path1013" />
    <path
       d="m 54.1424,39.2556 c 0,-2.0107 1.2841,-3.7181 3.0832,-4.3672 -0.9878,-0.7549 -2.2225,-1.2135 -3.563,-1.2135 -3.2242,0 -5.8629,2.6246 -5.8629,5.8277 v 11.6553 c 0,3.2031 2.6387,5.8277 5.8629,5.8277 3.2243,0 5.863,-2.6175 5.863,-5.8277 v -7.3022 c -0.2258,0.0353 -0.4586,0.0564 -0.6985,0.0564 -2.5893,0 -4.6847,-2.0813 -4.6847,-4.6494 z"
       fill="#6842ff"
       id="path1015" />
  </g>
  <g
     clip-path="url(#clip0_258_94)"
     id="g24"
     transform="matrix(3.4609139,0,0,3.6789089,212.76005,213.17945)"
     style="opacity:0.999">
    <path
       d="m 2.776,8.633 0.11,0.27 a 620,620 0 0 0 -3.144,1.289 c -1.406,4.595 0.479,12.453 1.524,16.142 0.347,1.224 1.457,2.053 2.729,2.096 a 3.05,3.05 0 0 0 3.097,-2.449 l 1.786,-8.904 c 0.958,-0.635 2.105,-1.323 3.118,-1.734 0.996,-0.403 2.385,-0.75 3.628,-1.011 l 7.49,5.16 a 3.05,3.05 0 0 0 3.93,-0.397 c 0.882,-0.917 1.103,-2.283 0.5,-3.405 C 25.728,12.314 21.613,5.36 17.405,3.038 16.789,3.281 15.795,3.679 14.643,4.142 l -0.11,-0.27 z"
       fill="url(#paint0_linear_258_94)"
       id="path8"
       style="fill:url(#paint0_linear_258_94);fill-opacity:1.0" />
    <g
       filter="url(#filter0_d_258_94)"
       id="g14">
      <path
         fill-rule="evenodd"
         clip-rule="evenodd"
         d="M 23.345,5.279 A 6.623,6.623 0 1 0 11.068,10.251 6.623,6.623 0 0 0 23.345,5.279"
         fill="url(#paint1_linear_258_94)"
         id="path10"
         style="fill:url(#paint1_linear_258_94)" />
      <path
         fill-rule="evenodd"
         clip-rule="evenodd"
         d="M 9.316,10.96 A 6.623,6.623 0 1 1 -2.961,15.933 6.623,6.623 0 0 1 9.316,10.961"
         fill="url(#paint2_linear_258_94)"
         id="path12"
         style="fill:url(#paint2_linear_258_94)" />
    </g>
    <path
       fill-rule="evenodd"
       clip-rule="evenodd"
       d="M 23.345,5.279 A 6.623,6.623 0 1 0 11.068,10.251 6.623,6.623 0 0 0 23.345,5.279"
       fill="url(#paint3_linear_258_94)"
       id="path16"
       style="fill:url(#paint3_linear_258_94)" />
    <path
       fill-rule="evenodd"
       clip-rule="evenodd"
       d="M 9.316,10.96 A 6.623,6.623 0 1 1 -2.961,15.933 6.623,6.623 0 0 1 9.316,10.961"
       fill="url(#paint4_linear_258_94)"
       id="path18"
       style="fill:url(#paint4_linear_258_94)" />
    <path
       d="m 5.451,11.506 a 0.946,0.946 0 0 1 0.71,1.753 l -1.754,0.711 0.71,1.754 a 0.94612578,0.94612578 0 1 1 -1.754,0.71 L 2.653,14.68 0.9,15.39 A 0.946,0.946 0 0 1 0.19,13.637 l 1.753,-0.71 -0.71,-1.754 a 0.946,0.946 0 0 1 1.753,-0.71 l 0.71,1.753 z"
       fill="url(#paint5_linear_258_94)"
       id="path20"
       style="fill:url(#paint5_linear_258_94)" />
    <path
       fill-rule="evenodd"
       clip-rule="evenodd"
       d="m 16.704,6.406 a 1.3307977,1.3307977 0 1 0 -0.999,-2.467 1.3307977,1.3307977 0 0 0 0.999,2.467 m -1.55,3.658 a 1.3306101,1.3306101 0 1 0 -0.998,-2.467 1.3307977,1.3307977 0 0 0 0.999,2.467 m 5.941,-3.842 a 1.3305221,1.3305221 0 1 1 -2.466,1 1.3305221,1.3305221 0 0 1 2.466,-1 m -2.282,5.39 a 1.3303343,1.3303343 0 1 0 -0.999,-2.466 1.3307977,1.3307977 0 0 0 0.999,2.467"
       fill="url(#paint6_linear_258_94)"
       id="path22"
       style="fill:url(#linearGradient987)" />
  </g>
</svg>
